/* XPM */
static char *exit_xpm[] = {
/* width height num_colors chars_per_pixel */
"    24    17        6            1",
/* colors */
". c none",
"# c #5d6169",
"a c #dfdfdf",
"b c #bebebe",
"c c #414141",
"d c #202020",
/* pixels */
"########################",
"#aaaaaaaaaaaaaaaaaaaaaaa",
"#abbbbbbbbbbbbbbbbbbbbca",
"#abddddbdbbbdbcbdddddbca",
"#abdbbbbdbbbdbdbbbdbbbca",
"#abdbbbbbdbdbbdbbbdbbbca",
"#abdbbbbbdddbbdbbbdbbbca",
"#abdbbbbbbdbbbdbbbdbbbca",
"#abdddbbbbdbbbdbbbdbbbca",
"#abdbbbbbdddbbdbbbdbbbca",
"#abdbbbbbdbdbbdbbbdbbbca",
"#abdbbbbbdbdbbdbbbdbbbca",
"#abdbbbbdbbbdbdbbbdbbbca",
"#abddddbdbbbdbdbbbdbbbca",
"#abbbbbbbbbbbbbbbbbbbbca",
"caccccccccccccccccccccca",
"caaaaaaaaaaaaaaaaaaaaaaa"
};
