/* XPM */
static char * arrowup_xpm[] = {
"48 10 5 1",
" 	c None",
".	c #dcdee5",
"X	c #5d6069",
"o	c #4c4c4c",
"O	c #d2d2d2",
"                                                ",
"                                                ",
"                       o                        ",
"                      o O                       ",
"                     o   O                      ",
"                    o     O                     ",
"                   o       O                    ",
"                   OOOOOOOOOO                   ",
"                                                ",
"                                                "};
