/* XPM */
static char * leftmenu_xpm[] = {
"20 14 3 1",
" 	c #DF7DDF7DE79D",
".	c none",
"X	c #5D75618569A6",
"                    ",
" ..................X",
" ..................X",
" ..................X",
" ..................X",
" ...            ...X",
" ... ..........X...X",
" ... ..........X...X",
" ... XXXXXXXXXXX...X",
" ..................X",
" ..................X",
" ..................X",
" ..................X",
" XXXXXXXXXXXXXXXXXXX"};
